# xmcd
#
# Track frame offsets:
#	150
#	31400
#	64080
#	87940
#	108710
#	156112
#	171592
#	188782
#	202077
#	216832
#	235250
#	249055
#	257437
#	271312
#	290920
#	309650
# Disc length: 4448 seconds
# Revision: 6
# Processed by: cddbd v1.5.2PL0 Copyright (c) Steve Scherf et al.
#
# Submitted via: libkcddb 0.20
#
DISCID=ee115e10
DTITLE=Penguin Cafe Orchestra - Union Cafe
DYEAR=1993
DGENRE=New Age
TTITLE0=Scherzo and Trio
TTITLE1=Lifeboat (Lovers Rock)
TTITLE2=Nothing Really Blue
TTITLE3=Cage Dead
TTITLE4=Vega
TTITLE5=Yodel 3
TTITLE6=Organum
TTITLE7=Another One From Porlock
TTITLE8=Thorn Tree Wind
TTITLE9=Silver Star of Bologna
TTITLE10=Discover America
TTITLE11=Pythagoras On The Line
TTITLE12=Kora Kora
TTITLE13=Lie Back And Think Of England
TTITLE14=Red Shorts
TTITLE15=Passing Through
EXTD=YEAR: 1993
EXTT0=
EXTT1=
EXTT2=
EXTT3=
EXTT4=
EXTT5=
EXTT6=
EXTT7=
EXTT8=
EXTT9=
EXTT10=
EXTT11=
EXTT12=
EXTT13=
EXTT14=
EXTT15=
PLAYORDER=
